<svg width="486" height="214" viewBox="0 0 486 214" fill="none" xmlns="http://www.w3.org/2000/svg">
<path d="M279.433 64.2617C279.433 78.4234 275.119 90.9738 268.48 99.8251C261.843 108.674 253.211 113.491 244.269 113.491C235.327 113.491 226.695 108.674 220.058 99.8251C213.419 90.9738 209.105 78.4234 209.105 64.2617C209.105 50.1 213.419 37.5497 220.058 28.6983C226.695 19.8491 235.327 15.0327 244.269 15.0327C253.211 15.0327 261.843 19.8491 268.48 28.6983C275.119 37.5497 279.433 50.1 279.433 64.2617Z" stroke="#FF6464" stroke-width="14.0654"/>
<path d="M195.884 117.992L132.59 64.2617L195.884 10.5317" stroke="#312828" stroke-width="14.0654" stroke-linecap="square"/>
<path d="M292.654 117.992L355.948 64.2617L292.654 10.5317" stroke="#312828" stroke-width="14.0654" stroke-linecap="square"/>
<line x1="274.996" y1="29.9726" x2="214.796" y2="94.111" stroke="#FF6464" stroke-width="14.0654"/>
<path d="M31.1364 173.423C31.1364 170.651 31.745 168.233 32.9621 166.171C34.2131 164.075 35.836 162.435 37.8307 161.252C39.8255 160.068 41.9894 159.477 44.3222 159.477C46.0127 159.477 47.5511 159.696 48.9373 160.136C50.3573 160.575 51.6421 161.201 52.7916 162.012C53.9411 162.79 54.9216 163.703 55.7331 164.751V159.071C54.2454 157.752 52.6226 156.772 50.8644 156.129C49.1063 155.487 46.9256 155.166 44.3222 155.166C41.8541 155.166 39.5381 155.622 37.3743 156.535C35.2443 157.414 33.3678 158.682 31.745 160.339C30.1221 161.962 28.8542 163.889 27.9414 166.12C27.0285 168.352 26.5721 170.786 26.5721 173.423C26.5721 176.06 27.0285 178.495 27.9414 180.726C28.8542 182.958 30.1221 184.902 31.745 186.558C33.3678 188.181 35.2443 189.449 37.3743 190.362C39.5381 191.241 41.8541 191.68 44.3222 191.68C46.9256 191.68 49.1063 191.359 50.8644 190.717C52.6226 190.075 54.2454 189.094 55.7331 187.775V182.095C54.9216 183.143 53.9411 184.073 52.7916 184.885C51.6421 185.662 50.3573 186.271 48.9373 186.71C47.5511 187.15 46.0127 187.37 44.3222 187.37C41.9894 187.37 39.8255 186.778 37.8307 185.595C35.836 184.411 34.2131 182.772 32.9621 180.675C31.745 178.579 31.1364 176.162 31.1364 173.423ZM76.5043 179.509C76.5043 181.842 77.0284 183.938 78.0765 185.798C79.1584 187.623 80.6122 189.06 82.438 190.108C84.2637 191.156 86.3092 191.68 88.5745 191.68C90.8735 191.68 92.919 191.156 94.7109 190.108C96.5367 189.06 97.9736 187.623 99.0217 185.798C100.104 183.938 100.645 181.842 100.645 179.509C100.645 177.142 100.104 175.046 99.0217 173.22C97.9736 171.395 96.5367 169.958 94.7109 168.91C92.919 167.861 90.8735 167.337 88.5745 167.337C86.3092 167.337 84.2637 167.861 82.438 168.91C80.6122 169.958 79.1584 171.395 78.0765 173.22C77.0284 175.046 76.5043 177.142 76.5043 179.509ZM80.6122 179.509C80.6122 177.886 80.9503 176.449 81.6265 175.198C82.3365 173.913 83.2832 172.916 84.4666 172.206C85.6837 171.496 87.053 171.141 88.5745 171.141C90.0959 171.141 91.4483 171.496 92.6316 172.206C93.8488 172.916 94.7955 173.913 95.4717 175.198C96.1817 176.449 96.5367 177.886 96.5367 179.509C96.5367 181.132 96.1817 182.569 95.4717 183.82C94.7955 185.071 93.8488 186.068 92.6316 186.812C91.4483 187.522 90.0959 187.877 88.5745 187.877C87.053 187.877 85.6837 187.522 84.4666 186.812C83.2832 186.068 82.3365 185.071 81.6265 183.82C80.9503 182.569 80.6122 181.132 80.6122 179.509ZM139.183 151.616V191.173H143.24V151.616H139.183ZM119.657 179.509C119.657 182.011 120.182 184.175 121.23 186C122.278 187.826 123.681 189.229 125.439 190.21C127.197 191.19 129.124 191.68 131.22 191.68C133.181 191.68 134.889 191.19 136.343 190.21C137.796 189.229 138.929 187.826 139.741 186C140.586 184.175 141.008 182.011 141.008 179.509C141.008 176.973 140.586 174.809 139.741 173.017C138.929 171.192 137.796 169.789 136.343 168.808C134.889 167.828 133.181 167.337 131.22 167.337C129.124 167.337 127.197 167.828 125.439 168.808C123.681 169.789 122.278 171.192 121.23 173.017C120.182 174.809 119.657 176.973 119.657 179.509ZM123.765 179.509C123.765 177.717 124.12 176.196 124.83 174.945C125.574 173.694 126.555 172.747 127.772 172.105C128.989 171.462 130.308 171.141 131.728 171.141C132.911 171.141 134.077 171.462 135.227 172.105C136.376 172.747 137.323 173.694 138.067 174.945C138.811 176.196 139.183 177.717 139.183 179.509C139.183 181.301 138.811 182.822 138.067 184.073C137.323 185.324 136.376 186.271 135.227 186.913C134.077 187.556 132.911 187.877 131.728 187.877C130.308 187.877 128.989 187.556 127.772 186.913C126.555 186.271 125.574 185.324 124.83 184.073C124.12 182.822 123.765 181.301 123.765 179.509ZM175.105 191.68C177.606 191.68 179.77 191.19 181.596 190.21C183.456 189.195 184.994 187.708 186.211 185.747L182.915 183.668C182.069 185.088 181.038 186.153 179.821 186.863C178.604 187.539 177.201 187.877 175.612 187.877C174.023 187.877 172.67 187.539 171.555 186.863C170.439 186.186 169.594 185.206 169.019 183.921C168.444 182.636 168.157 181.081 168.157 179.255C168.19 177.463 168.495 175.959 169.07 174.742C169.678 173.491 170.523 172.544 171.605 171.902C172.721 171.226 174.056 170.887 175.612 170.887C176.93 170.887 178.08 171.175 179.06 171.75C180.041 172.324 180.802 173.119 181.342 174.133C181.917 175.147 182.205 176.348 182.205 177.734C182.205 177.971 182.154 178.275 182.052 178.647C181.951 178.985 181.85 179.238 181.748 179.408L183.371 177.075H166.635V180.523H186.566C186.566 180.456 186.566 180.303 186.566 180.067C186.6 179.796 186.617 179.543 186.617 179.306C186.617 176.838 186.177 174.708 185.298 172.916C184.419 171.124 183.151 169.755 181.495 168.808C179.872 167.828 177.911 167.337 175.612 167.337C173.313 167.337 171.284 167.845 169.526 168.859C167.802 169.873 166.449 171.293 165.469 173.119C164.522 174.945 164.049 177.075 164.049 179.509C164.049 181.909 164.505 184.023 165.418 185.848C166.365 187.674 167.666 189.111 169.323 190.159C171.014 191.173 172.941 191.68 175.105 191.68ZM244.911 173.677L257.083 191.173H262.408L249.729 173.677H244.911ZM238.572 155.673V191.173H242.882V155.673H238.572ZM240.955 159.477H248.208C249.729 159.477 251.064 159.747 252.214 160.288C253.397 160.829 254.31 161.607 254.953 162.621C255.629 163.635 255.967 164.869 255.967 166.323C255.967 167.777 255.629 169.011 254.953 170.025C254.31 171.04 253.397 171.817 252.214 172.358C251.064 172.899 249.729 173.17 248.208 173.17H240.955V176.973H248.208C250.507 176.973 252.552 176.551 254.344 175.705C256.17 174.826 257.607 173.592 258.655 172.003C259.737 170.38 260.278 168.487 260.278 166.323C260.278 164.125 259.737 162.232 258.655 160.643C257.607 159.054 256.17 157.837 254.344 156.992C252.552 156.113 250.507 155.673 248.208 155.673H240.955V159.477ZM291.192 191.68C293.694 191.68 295.858 191.19 297.683 190.21C299.543 189.195 301.081 187.708 302.298 185.747L299.002 183.668C298.157 185.088 297.126 186.153 295.908 186.863C294.691 187.539 293.288 187.877 291.699 187.877C290.11 187.877 288.758 187.539 287.642 186.863C286.526 186.186 285.681 185.206 285.106 183.921C284.531 182.636 284.244 181.081 284.244 179.255C284.278 177.463 284.582 175.959 285.157 174.742C285.765 173.491 286.611 172.544 287.693 171.902C288.808 171.226 290.144 170.887 291.699 170.887C293.018 170.887 294.167 171.175 295.148 171.75C296.128 172.324 296.889 173.119 297.43 174.133C298.005 175.147 298.292 176.348 298.292 177.734C298.292 177.971 298.241 178.275 298.14 178.647C298.038 178.985 297.937 179.238 297.836 179.408L299.458 177.075H282.723V180.523H302.653C302.653 180.456 302.653 180.303 302.653 180.067C302.687 179.796 302.704 179.543 302.704 179.306C302.704 176.838 302.265 174.708 301.386 172.916C300.507 171.124 299.239 169.755 297.582 168.808C295.959 167.828 293.998 167.337 291.699 167.337C289.4 167.337 287.371 167.845 285.613 168.859C283.889 169.873 282.537 171.293 281.556 173.119C280.609 174.945 280.136 177.075 280.136 179.509C280.136 181.909 280.593 184.023 281.505 185.848C282.452 187.674 283.754 189.111 285.41 190.159C287.101 191.173 289.028 191.68 291.192 191.68ZM319.186 167.845L330.344 192.948L341.501 167.845H336.937L330.344 184.327L323.751 167.845H319.186ZM360.794 158.209C360.794 158.953 361.065 159.612 361.606 160.187C362.181 160.728 362.84 160.998 363.584 160.998C364.361 160.998 365.021 160.728 365.562 160.187C366.103 159.612 366.373 158.953 366.373 158.209C366.373 157.431 366.103 156.772 365.562 156.231C365.021 155.69 364.361 155.419 363.584 155.419C362.84 155.419 362.181 155.69 361.606 156.231C361.065 156.772 360.794 157.431 360.794 158.209ZM361.555 167.845V191.173H365.612V167.845H361.555ZM398.464 191.68C400.966 191.68 403.129 191.19 404.955 190.21C406.815 189.195 408.353 187.708 409.57 185.747L406.274 183.668C405.428 185.088 404.397 186.153 403.18 186.863C401.963 187.539 400.56 187.877 398.971 187.877C397.382 187.877 396.029 187.539 394.914 186.863C393.798 186.186 392.953 185.206 392.378 183.921C391.803 182.636 391.516 181.081 391.516 179.255C391.549 177.463 391.854 175.959 392.429 174.742C393.037 173.491 393.882 172.544 394.964 171.902C396.08 171.226 397.415 170.887 398.971 170.887C400.289 170.887 401.439 171.175 402.419 171.75C403.4 172.324 404.161 173.119 404.702 174.133C405.276 175.147 405.564 176.348 405.564 177.734C405.564 177.971 405.513 178.275 405.412 178.647C405.31 178.985 405.209 179.238 405.107 179.408L406.73 177.075H389.994V180.523H409.925C409.925 180.456 409.925 180.303 409.925 180.067C409.959 179.796 409.976 179.543 409.976 179.306C409.976 176.838 409.536 174.708 408.657 172.916C407.778 171.124 406.51 169.755 404.854 168.808C403.231 167.828 401.27 167.337 398.971 167.337C396.672 167.337 394.643 167.845 392.885 168.859C391.161 169.873 389.808 171.293 388.828 173.119C387.881 174.945 387.408 177.075 387.408 179.509C387.408 181.909 387.864 184.023 388.777 185.848C389.724 187.674 391.025 189.111 392.682 190.159C394.373 191.173 396.3 191.68 398.464 191.68ZM426.712 167.845L436.855 192.948L443.498 175.959L450.548 192.948L460.691 167.845H456.126L450.243 183.11L443.448 166.07L437.108 183.008L431.276 167.845H426.712Z" fill="black"/>
</svg>
